<?xml version="1.0" encoding="UTF-8"?>
<svg width="200" height="200" viewBox="0 0 200 200" xmlns="http://www.w3.org/2000/svg">
    <g stroke="#00f7ff" stroke-width="0.5" fill="none">
        <!-- Neural nodes -->
        <circle cx="50" cy="50" r="3" fill="#00f7ff"/>
        <circle cx="100" cy="50" r="3" fill="#00f7ff"/>
        <circle cx="150" cy="50" r="3" fill="#00f7ff"/>
        <circle cx="50" cy="100" r="3" fill="#00f7ff"/>
        <circle cx="100" cy="100" r="3" fill="#00f7ff"/>
        <circle cx="150" cy="100" r="3" fill="#00f7ff"/>
        <circle cx="50" cy="150" r="3" fill="#00f7ff"/>
        <circle cx="100" cy="150" r="3" fill="#00f7ff"/>
        <circle cx="150" cy="150" r="3" fill="#00f7ff"/>
        
        <!-- Neural connections -->
        <path d="M50,50 L100,50 M100,50 L150,50 M50,50 L50,100 M100,50 L100,100 M150,50 L150,100"/>
        <path d="M50,100 L100,100 M100,100 L150,100 M50,100 L50,150 M100,100 L100,150 M150,100 L150,150"/>
        <path d="M50,50 L100,100 M100,50 L150,100 M50,100 L100,150 M100,100 L150,150"/>
    </g>
</svg> 